<?xml version="1.0" encoding="UTF-8" standalone="no"?>
<!-- Created with Inkscape (http://www.inkscape.org/) -->

<svg
   xmlns:dc="http://purl.org/dc/elements/1.1/"
   xmlns:cc="http://creativecommons.org/ns#"
   xmlns:rdf="http://www.w3.org/1999/02/22-rdf-syntax-ns#"
   xmlns:svg="http://www.w3.org/2000/svg"
   xmlns="http://www.w3.org/2000/svg"
   xmlns:sodipodi="http://sodipodi.sourceforge.net/DTD/sodipodi-0.dtd"
   xmlns:inkscape="http://www.inkscape.org/namespaces/inkscape"
   id="svg3158"
   version="1.1"
   inkscape:version="0.48.5 r10040"
   width="193.39674"
   height="222.34253"
   xml:space="preserve"
   sodipodi:docname="New document 6"><metadata
     id="metadata3164"><rdf:RDF><cc:Work
         rdf:about=""><dc:format>image/svg+xml</dc:format><dc:type
           rdf:resource="http://purl.org/dc/dcmitype/StillImage" /><dc:title></dc:title></cc:Work></rdf:RDF></metadata><defs
     id="defs3162"><clipPath
       clipPathUnits="userSpaceOnUse"
       id="clipPath3174"><path
         d="m 36,36.00002 719.9999,0 0,540 -719.9999,0 0,-540 z"
         id="path3176"
         inkscape:connector-curvature="0" /></clipPath></defs><sodipodi:namedview
     pagecolor="#ffffff"
     bordercolor="#666666"
     borderopacity="1"
     objecttolerance="10"
     gridtolerance="10"
     guidetolerance="10"
     inkscape:pageopacity="0"
     inkscape:pageshadow="2"
     inkscape:window-width="1589"
     inkscape:window-height="1417"
     id="namedview3160"
     showgrid="false"
     fit-margin-top="10"
     fit-margin-left="10"
     fit-margin-right="10"
     fit-margin-bottom="10"
     inkscape:zoom="1.1370372"
     inkscape:cx="86.272362"
     inkscape:cy="172.16348"
     inkscape:window-x="969"
     inkscape:window-y="0"
     inkscape:window-maximized="0"
     inkscape:current-layer="g3170" /><g
     id="g3166"
     inkscape:groupmode="layer"
     inkscape:label="ongaro"
     transform="matrix(1.25,0,0,-1.25,-370.90999,393.91949)"><g
       id="g3168" /><g
       id="g3170"><path
         inkscape:connector-curvature="0"
         id="path3288"
         style="fill:#d5e1f6;fill-opacity:1;fill-rule:evenodd;stroke:none"
         d="m 305.478,256.2985 c 0,3.3138 2.6864,6.0001 6.0001,6.0001 l 23.9997,0 c 3.3138,0 6.0002,-2.6863 6.0002,-6.0001 l 0,-23.9997 c 0,-3.3138 -2.6864,-6.0002 -6.0002,-6.0002 l -23.9997,0 c -3.3137,0 -6.0001,2.6864 -6.0001,6.0002 l 0,23.9997 z" /><path
         d="m 305.47799,256.29845 c 0,3.31378 2.68637,6.00015 6.00016,6.00015 l 23.99969,0 c 3.31378,0 6.00015,-2.68637 6.00015,-6.00015 l 0,-23.99968 c 0,-3.31379 -2.68637,-6.00016 -6.00015,-6.00016 l -23.99969,0 c -3.31379,0 -6.00016,2.68637 -6.00016,6.00016 l 0,23.99968 z"
         style="fill:none;stroke:#000000;stroke-width:1.49999964;stroke-linecap:butt;stroke-linejoin:round;stroke-miterlimit:10;stroke-opacity:1;stroke-dasharray:none"
         id="path3292"
         inkscape:connector-curvature="0" /><path
         inkscape:connector-curvature="0"
         id="path3294"
         style="fill:#d5e1f6;fill-opacity:1;fill-rule:evenodd;stroke:none"
         d="m 355.304,300.3854 c 0,3.3138 2.6864,6.0002 6.0002,6.0002 l 23.9997,0 c 3.3138,0 6.0001,-2.6864 6.0001,-6.0002 l 0,-23.9997 c 0,-3.3137 -2.6863,-6.0001 -6.0001,-6.0001 l -23.9997,0 c -3.3138,0 -6.0002,2.6864 -6.0002,6.0001 l 0,23.9997 z" /><path
         d="m 355.30401,300.38544 c 0,3.31378 2.68637,6.00015 6.00015,6.00015 l 23.99969,0 c 3.31378,0 6.00016,-2.68637 6.00016,-6.00015 l 0,-23.9997 c 0,-3.31378 -2.68638,-6.00015 -6.00016,-6.00015 l -23.99969,0 c -3.31378,0 -6.00015,2.68637 -6.00015,6.00015 l 0,23.9997 z"
         style="fill:none;stroke:#000000;stroke-width:1.49999964;stroke-linecap:butt;stroke-linejoin:round;stroke-miterlimit:10;stroke-opacity:1;stroke-dasharray:none"
         id="path3298"
         inkscape:connector-curvature="0" /><path
         inkscape:connector-curvature="0"
         id="path3300"
         style="fill:#d5e1f6;fill-opacity:1;fill-rule:evenodd;stroke:none"
         d="m 406.6954,256.2985 c 0,3.3138 2.6864,6.0001 6.0002,6.0001 l 23.9997,0 c 3.3137,0 6.0001,-2.6863 6.0001,-6.0001 l 0,-23.9997 c 0,-3.3138 -2.6864,-6.0002 -6.0001,-6.0002 l -23.9997,0 c -3.3138,0 -6.0002,2.6864 -6.0002,6.0002 l 0,23.9997 z" /><path
         d="m 406.69539,256.29845 c 0,3.31378 2.68637,6.00015 6.00016,6.00015 l 23.99969,0 c 3.31378,0 6.00015,-2.68637 6.00015,-6.00015 l 0,-23.99968 c 0,-3.31379 -2.68637,-6.00016 -6.00015,-6.00016 l -23.99969,0 c -3.31379,0 -6.00016,2.68637 -6.00016,6.00016 l 0,23.99968 z"
         style="fill:none;stroke:#000000;stroke-width:1.49999964;stroke-linecap:butt;stroke-linejoin:round;stroke-miterlimit:10;stroke-opacity:1;stroke-dasharray:none"
         id="path3304"
         inkscape:connector-curvature="0" /><path
         inkscape:connector-curvature="0"
         id="path3306"
         style="fill:#d5e1f6;fill-opacity:1;fill-rule:evenodd;stroke:none"
         d="m 324.5219,211.6898 c 0,3.3138 2.6863,6.0001 6.0001,6.0001 l 23.9997,0 c 3.3138,0 6.0002,-2.6863 6.0002,-6.0001 l 0,-23.9997 c 0,-3.3138 -2.6864,-6.0002 -6.0002,-6.0002 l -23.9997,0 c -3.3138,0 -6.0001,2.6864 -6.0001,6.0002 l 0,23.9997 z" /><path
         d="m 324.52189,211.68975 c 0,3.31379 2.68637,6.00015 6.00015,6.00015 l 23.9997,0 c 3.31377,0 6.00015,-2.68636 6.00015,-6.00015 l 0,-23.99968 c 0,-3.3138 -2.68638,-6.00017 -6.00015,-6.00017 l -23.9997,0 c -3.31378,0 -6.00015,2.68637 -6.00015,6.00017 l 0,23.99968 z"
         style="fill:none;stroke:#000000;stroke-width:1.49999964;stroke-linecap:butt;stroke-linejoin:round;stroke-miterlimit:10;stroke-opacity:1;stroke-dasharray:none"
         id="path3310"
         inkscape:connector-curvature="0" /><path
         inkscape:connector-curvature="0"
         id="path3312"
         style="fill:#d5e1f6;fill-opacity:1;fill-rule:evenodd;stroke:none"
         d="m 392.8697,211.6898 c 0,3.3138 2.6864,6.0001 6.0002,6.0001 l 23.9997,0 c 3.3137,0 6.0001,-2.6863 6.0001,-6.0001 l 0,-23.9997 c 0,-3.3138 -2.6864,-6.0002 -6.0001,-6.0002 l -23.9997,0 c -3.3138,0 -6.0002,2.6864 -6.0002,6.0002 l 0,23.9997 z" /><path
         d="m 392.86968,211.68975 c 0,3.31379 2.68637,6.00015 6.00015,6.00015 l 23.99969,0 c 3.31379,0 6.00016,-2.68636 6.00016,-6.00015 l 0,-23.99968 c 0,-3.3138 -2.68637,-6.00017 -6.00016,-6.00017 l -23.99969,0 c -3.31378,0 -6.00015,2.68637 -6.00015,6.00017 l 0,23.99968 z"
         style="fill:none;stroke:#000000;stroke-width:1.49999964;stroke-linecap:butt;stroke-linejoin:round;stroke-miterlimit:10;stroke-opacity:1;stroke-dasharray:none"
         id="path3316"
         inkscape:connector-curvature="0" /><path
         d="m 321.1305,219.7769 42.7826,-42.7826"
         style="fill:none;stroke:#b61927;stroke-width:4.49999905;stroke-linecap:round;stroke-linejoin:round;stroke-miterlimit:10;stroke-opacity:1;stroke-dasharray:none"
         id="path3320"
         inkscape:connector-curvature="0" /><path
         d="m 321.1305,176.9943 42.7826,42.78258"
         style="fill:none;stroke:#b61927;stroke-width:4.49999905;stroke-linecap:round;stroke-linejoin:round;stroke-miterlimit:10;stroke-opacity:1;stroke-dasharray:none"
         id="path3324"
         inkscape:connector-curvature="0" /><path
         d="m 389.2173,221.0813 42.7826,-42.78259"
         style="fill:none;stroke:#b61927;stroke-width:4.49999905;stroke-linecap:round;stroke-linejoin:round;stroke-miterlimit:10;stroke-opacity:1;stroke-dasharray:none"
         id="path3328"
         inkscape:connector-curvature="0" /><path
         d="m 389.2173,178.2987 42.7826,42.7826"
         style="fill:none;stroke:#b61927;stroke-width:4.49999905;stroke-linecap:round;stroke-linejoin:round;stroke-miterlimit:10;stroke-opacity:1;stroke-dasharray:none"
         id="path3332"
         inkscape:connector-curvature="0" /><text
         transform="scale(1,-1)"
         id="text3336"
         x="342.49628"
         y="-145.48129"><tspan
           style="font-size:18px;font-variant:normal;font-weight:normal;writing-mode:lr-tb;fill:#000000;fill-opacity:1;fill-rule:nonzero;stroke:none;font-family:Arial;-inkscape-font-specification:ArialMT"
           x="342.49628 354.50229 364.51389 370.5079 379.5079 389.5195 395.51349 404.51349"
           y="-145.48129"
           sodipodi:role="line"
           id="tspan3338">Servers </tspan></text>
</g></g></svg>